<svg width="126" height="43" viewBox="0 0 126 43" fill="none" xmlns="http://www.w3.org/2000/svg">
<rect width="126" height="43" fill="#C0DA1F"/>
<path d="M22.8398 20.7188V22.6621H15.291V20.7188H22.8398ZM15.8965 14.7812V29H13.4453V14.7812H15.8965ZM24.7246 14.7812V29H22.2832V14.7812H24.7246ZM33.5172 26.8809V21.8418C33.5172 21.4642 33.4488 21.1387 33.3121 20.8652C33.1754 20.5918 32.9671 20.3802 32.6871 20.2305C32.4137 20.0807 32.0686 20.0059 31.652 20.0059C31.2678 20.0059 30.9358 20.071 30.6559 20.2012C30.3759 20.3314 30.1578 20.5072 30.0016 20.7285C29.8453 20.9499 29.7672 21.2005 29.7672 21.4805H27.4234C27.4234 21.0638 27.5243 20.6602 27.7262 20.2695C27.928 19.8789 28.221 19.5306 28.6051 19.2246C28.9892 18.9186 29.4482 18.6777 29.982 18.502C30.5159 18.3262 31.1148 18.2383 31.7789 18.2383C32.5732 18.2383 33.2763 18.3717 33.8883 18.6387C34.5068 18.9056 34.9918 19.3092 35.3434 19.8496C35.7014 20.3835 35.8805 21.054 35.8805 21.8613V26.5586C35.8805 27.0404 35.913 27.4733 35.9781 27.8574C36.0497 28.235 36.1507 28.5638 36.2809 28.8438V29H33.8687C33.7581 28.7461 33.6702 28.4238 33.6051 28.0332C33.5465 27.6361 33.5172 27.252 33.5172 26.8809ZM33.859 22.5742L33.8785 24.0293H32.1891C31.7529 24.0293 31.3687 24.0716 31.0367 24.1562C30.7047 24.2344 30.428 24.3516 30.2066 24.5078C29.9853 24.6641 29.8193 24.8529 29.7086 25.0742C29.5979 25.2956 29.5426 25.5462 29.5426 25.8262C29.5426 26.1061 29.6077 26.3633 29.7379 26.5977C29.8681 26.8255 30.0569 27.0046 30.3043 27.1348C30.5582 27.265 30.8642 27.3301 31.2223 27.3301C31.704 27.3301 32.124 27.2324 32.482 27.0371C32.8466 26.8353 33.1331 26.5911 33.3414 26.3047C33.5497 26.0117 33.6604 25.735 33.6734 25.4746L34.4352 26.5195C34.357 26.7865 34.2236 27.0729 34.0348 27.3789C33.846 27.6849 33.5986 27.9779 33.2926 28.2578C32.9931 28.5312 32.6318 28.7559 32.2086 28.9316C31.7919 29.1074 31.3102 29.1953 30.7633 29.1953C30.0732 29.1953 29.4579 29.0586 28.9176 28.7852C28.3772 28.5052 27.954 28.1309 27.648 27.6621C27.3421 27.1868 27.1891 26.6497 27.1891 26.0508C27.1891 25.4909 27.2932 24.9961 27.5016 24.5664C27.7164 24.1302 28.0289 23.7656 28.4391 23.4727C28.8557 23.1797 29.3635 22.9583 29.9625 22.8086C30.5615 22.6523 31.2451 22.5742 32.0133 22.5742H33.859ZM38.5012 14H40.8547V26.7441L40.6301 29H38.5012V14ZM47.7492 23.6191V23.8242C47.7492 24.6055 47.6613 25.3249 47.4855 25.9824C47.3163 26.6335 47.0559 27.1999 46.7043 27.6816C46.3592 28.1634 45.9296 28.5378 45.4152 28.8047C44.9074 29.0651 44.3182 29.1953 43.6477 29.1953C42.9901 29.1953 42.4172 29.0716 41.9289 28.8242C41.4406 28.5768 41.0305 28.2253 40.6984 27.7695C40.3729 27.3138 40.1092 26.7702 39.9074 26.1387C39.7056 25.5072 39.5624 24.8105 39.4777 24.0488V23.3945C39.5624 22.6263 39.7056 21.9297 39.9074 21.3047C40.1092 20.6732 40.3729 20.1296 40.6984 19.6738C41.0305 19.2116 41.4374 18.8568 41.9191 18.6094C42.4074 18.362 42.9771 18.2383 43.6281 18.2383C44.3052 18.2383 44.9009 18.3685 45.4152 18.6289C45.9361 18.8893 46.369 19.2604 46.7141 19.7422C47.0591 20.2174 47.3163 20.7839 47.4855 21.4414C47.6613 22.099 47.7492 22.8249 47.7492 23.6191ZM45.3957 23.8242V23.6191C45.3957 23.1439 45.3566 22.6979 45.2785 22.2812C45.2004 21.8581 45.0702 21.487 44.8879 21.168C44.7121 20.849 44.4712 20.5983 44.1652 20.416C43.8658 20.2272 43.4914 20.1328 43.0422 20.1328C42.6255 20.1328 42.2674 20.2044 41.968 20.3477C41.6685 20.4909 41.4178 20.6862 41.216 20.9336C41.0142 21.181 40.8547 21.4674 40.7375 21.793C40.6268 22.1185 40.552 22.4701 40.5129 22.8477V24.6152C40.5715 25.1035 40.6952 25.5527 40.884 25.9629C41.0793 26.3665 41.3527 26.6921 41.7043 26.9395C42.0559 27.1803 42.5083 27.3008 43.0617 27.3008C43.4979 27.3008 43.8658 27.2129 44.1652 27.0371C44.4647 26.8613 44.7023 26.6172 44.8781 26.3047C45.0604 25.9857 45.1906 25.6146 45.2687 25.1914C45.3534 24.7682 45.3957 24.3125 45.3957 23.8242ZM52.4109 18.4336V29H50.0477V18.4336H52.4109ZM49.8914 15.6602C49.8914 15.3021 50.0086 15.0059 50.243 14.7715C50.4839 14.5306 50.8159 14.4102 51.2391 14.4102C51.6557 14.4102 51.9845 14.5306 52.2254 14.7715C52.4663 15.0059 52.5867 15.3021 52.5867 15.6602C52.5867 16.0117 52.4663 16.3047 52.2254 16.5391C51.9845 16.7734 51.6557 16.8906 51.2391 16.8906C50.8159 16.8906 50.4839 16.7734 50.243 16.5391C50.0086 16.3047 49.8914 16.0117 49.8914 15.6602ZM59.9828 18.4336V20.1523H54.0258V18.4336H59.9828ZM55.7445 15.8457H58.098V26.0801C58.098 26.4056 58.1436 26.6562 58.2348 26.832C58.3324 27.0013 58.4659 27.1152 58.6352 27.1738C58.8044 27.2324 59.003 27.2617 59.2309 27.2617C59.3936 27.2617 59.5499 27.252 59.6996 27.2324C59.8493 27.2129 59.9698 27.1934 60.0609 27.1738L60.0707 28.9707C59.8754 29.0293 59.6475 29.0814 59.3871 29.127C59.1332 29.1725 58.8402 29.1953 58.5082 29.1953C57.9678 29.1953 57.4893 29.1009 57.0727 28.9121C56.656 28.7168 56.3305 28.401 56.0961 27.9648C55.8617 27.5286 55.7445 26.9492 55.7445 26.2266V15.8457ZM70.582 24.3711H73.0234C72.9453 25.3021 72.6849 26.1322 72.2422 26.8613C71.7995 27.584 71.1777 28.1536 70.377 28.5703C69.5762 28.987 68.6029 29.1953 67.457 29.1953C66.5781 29.1953 65.7871 29.0391 65.084 28.7266C64.3809 28.4076 63.7786 27.9583 63.2773 27.3789C62.776 26.793 62.3919 26.0866 62.125 25.2598C61.8646 24.4329 61.7344 23.5085 61.7344 22.4863V21.3047C61.7344 20.2826 61.8678 19.3581 62.1348 18.5312C62.4082 17.7044 62.7988 16.998 63.3066 16.4121C63.8145 15.8197 64.4232 15.3672 65.1328 15.0547C65.849 14.7422 66.653 14.5859 67.5449 14.5859C68.6777 14.5859 69.6348 14.7943 70.416 15.2109C71.1973 15.6276 71.8027 16.2038 72.2324 16.9395C72.6686 17.6751 72.9355 18.5182 73.0332 19.4688H70.5918C70.5267 18.8568 70.3835 18.3327 70.1621 17.8965C69.9473 17.4603 69.6283 17.1283 69.2051 16.9004C68.7819 16.666 68.2285 16.5488 67.5449 16.5488C66.985 16.5488 66.4967 16.653 66.0801 16.8613C65.6634 17.0697 65.3151 17.3757 65.0352 17.7793C64.7552 18.1829 64.5436 18.681 64.4004 19.2734C64.2637 19.8594 64.1953 20.5299 64.1953 21.2852V22.4863C64.1953 23.2025 64.2572 23.8535 64.3809 24.4395C64.5111 25.0189 64.7064 25.5169 64.9668 25.9336C65.2337 26.3503 65.5723 26.6725 65.9824 26.9004C66.3926 27.1283 66.8841 27.2422 67.457 27.2422C68.1536 27.2422 68.7168 27.1315 69.1465 26.9102C69.5827 26.6888 69.9115 26.3665 70.1328 25.9434C70.3607 25.5137 70.5104 24.9896 70.582 24.3711ZM74.7164 23.834V23.6094C74.7164 22.8477 74.8271 22.1413 75.0484 21.4902C75.2698 20.8327 75.5888 20.263 76.0055 19.7812C76.4286 19.293 76.943 18.9154 77.5484 18.6484C78.1604 18.375 78.8505 18.2383 79.6188 18.2383C80.3935 18.2383 81.0836 18.375 81.6891 18.6484C82.301 18.9154 82.8186 19.293 83.2418 19.7812C83.665 20.263 83.9872 20.8327 84.2086 21.4902C84.4299 22.1413 84.5406 22.8477 84.5406 23.6094V23.834C84.5406 24.5957 84.4299 25.3021 84.2086 25.9531C83.9872 26.6042 83.665 27.1738 83.2418 27.6621C82.8186 28.1439 82.3043 28.5215 81.6988 28.7949C81.0934 29.0618 80.4065 29.1953 79.6383 29.1953C78.8635 29.1953 78.1702 29.0618 77.5582 28.7949C76.9527 28.5215 76.4384 28.1439 76.0152 27.6621C75.5921 27.1738 75.2698 26.6042 75.0484 25.9531C74.8271 25.3021 74.7164 24.5957 74.7164 23.834ZM77.0699 23.6094V23.834C77.0699 24.3092 77.1188 24.7585 77.2164 25.1816C77.3141 25.6048 77.4671 25.9759 77.6754 26.2949C77.8837 26.6139 78.1507 26.8646 78.4762 27.0469C78.8017 27.2292 79.1891 27.3203 79.6383 27.3203C80.0745 27.3203 80.4521 27.2292 80.7711 27.0469C81.0966 26.8646 81.3635 26.6139 81.5719 26.2949C81.7802 25.9759 81.9332 25.6048 82.0309 25.1816C82.135 24.7585 82.1871 24.3092 82.1871 23.834V23.6094C82.1871 23.1406 82.135 22.6979 82.0309 22.2812C81.9332 21.8581 81.777 21.4837 81.5621 21.1582C81.3538 20.8327 81.0869 20.5788 80.7613 20.3965C80.4423 20.2077 80.0615 20.1133 79.6188 20.1133C79.176 20.1133 78.7919 20.2077 78.4664 20.3965C78.1474 20.5788 77.8837 20.8327 77.6754 21.1582C77.4671 21.4837 77.3141 21.8581 77.2164 22.2812C77.1188 22.6979 77.0699 23.1406 77.0699 23.6094ZM93.0207 26.5098V18.4336H95.384V29H93.1574L93.0207 26.5098ZM93.3527 24.3125L94.1438 24.293C94.1438 25.0026 94.0656 25.6569 93.9094 26.2559C93.7531 26.8483 93.5122 27.3659 93.1867 27.8086C92.8612 28.2448 92.4445 28.5866 91.9367 28.834C91.4289 29.0749 90.8202 29.1953 90.1105 29.1953C89.5962 29.1953 89.1242 29.1204 88.6945 28.9707C88.2648 28.821 87.8938 28.5898 87.5813 28.2773C87.2753 27.9648 87.0376 27.5579 86.8684 27.0566C86.6991 26.5553 86.6145 25.9564 86.6145 25.2598V18.4336H88.968V25.2793C88.968 25.6634 89.0135 25.9857 89.1047 26.2461C89.1958 26.5 89.3195 26.7051 89.4758 26.8613C89.632 27.0176 89.8143 27.1283 90.0227 27.1934C90.231 27.2585 90.4523 27.291 90.6867 27.291C91.3573 27.291 91.8846 27.1608 92.2688 26.9004C92.6594 26.6335 92.9361 26.2754 93.0988 25.8262C93.2681 25.377 93.3527 24.8724 93.3527 24.3125ZM100.28 20.6895V29H97.9266V18.4336H100.143L100.28 20.6895ZM99.8602 23.3262L99.0984 23.3164C99.1049 22.5677 99.2091 21.8809 99.4109 21.2559C99.6193 20.6309 99.9057 20.0938 100.27 19.6445C100.641 19.1953 101.084 18.8503 101.598 18.6094C102.113 18.362 102.686 18.2383 103.317 18.2383C103.825 18.2383 104.284 18.3099 104.694 18.4531C105.111 18.5898 105.466 18.8145 105.759 19.127C106.058 19.4395 106.286 19.8464 106.442 20.3477C106.598 20.8424 106.677 21.4512 106.677 22.1738V29H104.313V22.1641C104.313 21.6562 104.238 21.2559 104.089 20.9629C103.945 20.6634 103.734 20.4518 103.454 20.3281C103.18 20.1979 102.839 20.1328 102.429 20.1328C102.025 20.1328 101.664 20.2174 101.345 20.3867C101.026 20.556 100.755 20.7871 100.534 21.0801C100.319 21.373 100.153 21.7116 100.036 22.0957C99.9187 22.4798 99.8602 22.89 99.8602 23.3262ZM114.073 18.4336V20.1523H108.116V18.4336H114.073ZM109.834 15.8457H112.188V26.0801C112.188 26.4056 112.233 26.6562 112.325 26.832C112.422 27.0013 112.556 27.1152 112.725 27.1738C112.894 27.2324 113.093 27.2617 113.321 27.2617C113.483 27.2617 113.64 27.252 113.789 27.2324C113.939 27.2129 114.06 27.1934 114.151 27.1738L114.161 28.9707C113.965 29.0293 113.737 29.0814 113.477 29.127C113.223 29.1725 112.93 29.1953 112.598 29.1953C112.058 29.1953 111.579 29.1009 111.162 28.9121C110.746 28.7168 110.42 28.401 110.186 27.9648C109.952 27.5286 109.834 26.9492 109.834 26.2266V15.8457Z" fill="white"/>
</svg>
