<svg width="13" height="11" viewBox="0 0 13 11" fill="none" xmlns="http://www.w3.org/2000/svg">
<path fill-rule="evenodd" clip-rule="evenodd" d="M0.125 10.2812C0.125 10.1404 0.180971 10.0052 0.2806 9.9056C0.380228 9.80597 0.515354 9.75 0.65625 9.75H12.3438C12.4846 9.75 12.6198 9.80597 12.7194 9.9056C12.819 10.0052 12.875 10.1404 12.875 10.2812C12.875 10.4221 12.819 10.5573 12.7194 10.6569C12.6198 10.7565 12.4846 10.8125 12.3438 10.8125H0.65625C0.515354 10.8125 0.380228 10.7565 0.2806 10.6569C0.180971 10.5573 0.125 10.4221 0.125 10.2812ZM0.125 7.09375C0.125 6.95285 0.180971 6.81773 0.2806 6.7181C0.380228 6.61847 0.515354 6.5625 0.65625 6.5625H12.3438C12.4846 6.5625 12.6198 6.61847 12.7194 6.7181C12.819 6.81773 12.875 6.95285 12.875 7.09375C12.875 7.23465 12.819 7.36977 12.7194 7.4694C12.6198 7.56903 12.4846 7.625 12.3438 7.625H0.65625C0.515354 7.625 0.380228 7.56903 0.2806 7.4694C0.180971 7.36977 0.125 7.23465 0.125 7.09375ZM0.125 3.90625C0.125 3.76535 0.180971 3.63023 0.2806 3.5306C0.380228 3.43097 0.515354 3.375 0.65625 3.375H12.3438C12.4846 3.375 12.6198 3.43097 12.7194 3.5306C12.819 3.63023 12.875 3.76535 12.875 3.90625C12.875 4.04715 12.819 4.18227 12.7194 4.2819C12.6198 4.38153 12.4846 4.4375 12.3438 4.4375H0.65625C0.515354 4.4375 0.380228 4.38153 0.2806 4.2819C0.180971 4.18227 0.125 4.04715 0.125 3.90625ZM0.125 0.71875C0.125 0.577854 0.180971 0.442728 0.2806 0.3431C0.380228 0.243471 0.515354 0.1875 0.65625 0.1875H12.3438C12.4846 0.1875 12.6198 0.243471 12.7194 0.3431C12.819 0.442728 12.875 0.577854 12.875 0.71875C12.875 0.859646 12.819 0.994772 12.7194 1.0944C12.6198 1.19403 12.4846 1.25 12.3438 1.25H0.65625C0.515354 1.25 0.380228 1.19403 0.2806 1.0944C0.180971 0.994772 0.125 0.859646 0.125 0.71875Z" fill="#C6E700"/>
</svg>
