<svg width="141" height="43" viewBox="0 0 141 43" fill="none" xmlns="http://www.w3.org/2000/svg">
<rect width="141" height="43" fill="#C0DA1F"/>
<path d="M21.8398 19.7188V21.6621H14.291V19.7188H21.8398ZM14.8965 13.7812V28H12.4453V13.7812H14.8965ZM23.7246 13.7812V28H21.2832V13.7812H23.7246ZM32.5172 25.8809V20.8418C32.5172 20.4642 32.4488 20.1387 32.3121 19.8652C32.1754 19.5918 31.9671 19.3802 31.6871 19.2305C31.4137 19.0807 31.0686 19.0059 30.652 19.0059C30.2678 19.0059 29.9358 19.071 29.6559 19.2012C29.3759 19.3314 29.1578 19.5072 29.0016 19.7285C28.8453 19.9499 28.7672 20.2005 28.7672 20.4805H26.4234C26.4234 20.0638 26.5243 19.6602 26.7262 19.2695C26.928 18.8789 27.221 18.5306 27.6051 18.2246C27.9892 17.9186 28.4482 17.6777 28.982 17.502C29.5159 17.3262 30.1148 17.2383 30.7789 17.2383C31.5732 17.2383 32.2763 17.3717 32.8883 17.6387C33.5068 17.9056 33.9918 18.3092 34.3434 18.8496C34.7014 19.3835 34.8805 20.054 34.8805 20.8613V25.5586C34.8805 26.0404 34.913 26.4733 34.9781 26.8574C35.0497 27.235 35.1507 27.5638 35.2809 27.8438V28H32.8687C32.7581 27.7461 32.6702 27.4238 32.6051 27.0332C32.5465 26.6361 32.5172 26.252 32.5172 25.8809ZM32.859 21.5742L32.8785 23.0293H31.1891C30.7529 23.0293 30.3687 23.0716 30.0367 23.1562C29.7047 23.2344 29.428 23.3516 29.2066 23.5078C28.9853 23.6641 28.8193 23.8529 28.7086 24.0742C28.5979 24.2956 28.5426 24.5462 28.5426 24.8262C28.5426 25.1061 28.6077 25.3633 28.7379 25.5977C28.8681 25.8255 29.0569 26.0046 29.3043 26.1348C29.5582 26.265 29.8642 26.3301 30.2223 26.3301C30.704 26.3301 31.124 26.2324 31.482 26.0371C31.8466 25.8353 32.1331 25.5911 32.3414 25.3047C32.5497 25.0117 32.6604 24.735 32.6734 24.4746L33.4352 25.5195C33.357 25.7865 33.2236 26.0729 33.0348 26.3789C32.846 26.6849 32.5986 26.9779 32.2926 27.2578C31.9931 27.5312 31.6318 27.7559 31.2086 27.9316C30.7919 28.1074 30.3102 28.1953 29.7633 28.1953C29.0732 28.1953 28.4579 28.0586 27.9176 27.7852C27.3772 27.5052 26.954 27.1309 26.648 26.6621C26.3421 26.1868 26.1891 25.6497 26.1891 25.0508C26.1891 24.4909 26.2932 23.9961 26.5016 23.5664C26.7164 23.1302 27.0289 22.7656 27.4391 22.4727C27.8557 22.1797 28.3635 21.9583 28.9625 21.8086C29.5615 21.6523 30.2451 21.5742 31.0133 21.5742H32.859ZM37.5012 13H39.8547V25.7441L39.6301 28H37.5012V13ZM46.7492 22.6191V22.8242C46.7492 23.6055 46.6613 24.3249 46.4855 24.9824C46.3163 25.6335 46.0559 26.1999 45.7043 26.6816C45.3592 27.1634 44.9296 27.5378 44.4152 27.8047C43.9074 28.0651 43.3182 28.1953 42.6477 28.1953C41.9901 28.1953 41.4172 28.0716 40.9289 27.8242C40.4406 27.5768 40.0305 27.2253 39.6984 26.7695C39.3729 26.3138 39.1092 25.7702 38.9074 25.1387C38.7056 24.5072 38.5624 23.8105 38.4777 23.0488V22.3945C38.5624 21.6263 38.7056 20.9297 38.9074 20.3047C39.1092 19.6732 39.3729 19.1296 39.6984 18.6738C40.0305 18.2116 40.4374 17.8568 40.9191 17.6094C41.4074 17.362 41.9771 17.2383 42.6281 17.2383C43.3052 17.2383 43.9009 17.3685 44.4152 17.6289C44.9361 17.8893 45.369 18.2604 45.7141 18.7422C46.0591 19.2174 46.3163 19.7839 46.4855 20.4414C46.6613 21.099 46.7492 21.8249 46.7492 22.6191ZM44.3957 22.8242V22.6191C44.3957 22.1439 44.3566 21.6979 44.2785 21.2812C44.2004 20.8581 44.0702 20.487 43.8879 20.168C43.7121 19.849 43.4712 19.5983 43.1652 19.416C42.8658 19.2272 42.4914 19.1328 42.0422 19.1328C41.6255 19.1328 41.2674 19.2044 40.968 19.3477C40.6685 19.4909 40.4178 19.6862 40.216 19.9336C40.0142 20.181 39.8547 20.4674 39.7375 20.793C39.6268 21.1185 39.552 21.4701 39.5129 21.8477V23.6152C39.5715 24.1035 39.6952 24.5527 39.884 24.9629C40.0793 25.3665 40.3527 25.6921 40.7043 25.9395C41.0559 26.1803 41.5083 26.3008 42.0617 26.3008C42.4979 26.3008 42.8658 26.2129 43.1652 26.0371C43.4647 25.8613 43.7023 25.6172 43.8781 25.3047C44.0604 24.9857 44.1906 24.6146 44.2687 24.1914C44.3534 23.7682 44.3957 23.3125 44.3957 22.8242ZM51.4109 17.4336V28H49.0477V17.4336H51.4109ZM48.8914 14.6602C48.8914 14.3021 49.0086 14.0059 49.243 13.7715C49.4839 13.5306 49.8159 13.4102 50.2391 13.4102C50.6557 13.4102 50.9845 13.5306 51.2254 13.7715C51.4663 14.0059 51.5867 14.3021 51.5867 14.6602C51.5867 15.0117 51.4663 15.3047 51.2254 15.5391C50.9845 15.7734 50.6557 15.8906 50.2391 15.8906C49.8159 15.8906 49.4839 15.7734 49.243 15.5391C49.0086 15.3047 48.8914 15.0117 48.8914 14.6602ZM58.9828 17.4336V19.1523H53.0258V17.4336H58.9828ZM54.7445 14.8457H57.098V25.0801C57.098 25.4056 57.1436 25.6562 57.2348 25.832C57.3324 26.0013 57.4659 26.1152 57.6352 26.1738C57.8044 26.2324 58.003 26.2617 58.2309 26.2617C58.3936 26.2617 58.5499 26.252 58.6996 26.2324C58.8493 26.2129 58.9698 26.1934 59.0609 26.1738L59.0707 27.9707C58.8754 28.0293 58.6475 28.0814 58.3871 28.127C58.1332 28.1725 57.8402 28.1953 57.5082 28.1953C56.9678 28.1953 56.4893 28.1009 56.0727 27.9121C55.656 27.7168 55.3305 27.401 55.0961 26.9648C54.8617 26.5286 54.7445 25.9492 54.7445 25.2266V14.8457ZM68.6641 24.3379C68.6641 24.0449 68.6185 23.7845 68.5273 23.5566C68.4427 23.3288 68.2897 23.1204 68.0684 22.9316C67.847 22.7428 67.5345 22.5605 67.1309 22.3848C66.7337 22.2025 66.2259 22.0169 65.6074 21.8281C64.9303 21.6198 64.3053 21.3887 63.7324 21.1348C63.166 20.8743 62.6712 20.5749 62.248 20.2363C61.8249 19.8913 61.4961 19.4974 61.2617 19.0547C61.0273 18.6055 60.9102 18.0879 60.9102 17.502C60.9102 16.9225 61.0306 16.3952 61.2715 15.9199C61.5189 15.4447 61.8672 15.0345 62.3164 14.6895C62.7721 14.3379 63.3092 14.0677 63.9277 13.8789C64.5462 13.6836 65.2298 13.5859 65.9785 13.5859C67.0332 13.5859 67.9414 13.7812 68.7031 14.1719C69.4714 14.5625 70.0605 15.0866 70.4707 15.7441C70.8874 16.4017 71.0957 17.1276 71.0957 17.9219H68.6641C68.6641 17.4531 68.5632 17.0397 68.3613 16.6816C68.166 16.3171 67.8665 16.0306 67.4629 15.8223C67.0658 15.6139 66.5612 15.5098 65.9492 15.5098C65.3698 15.5098 64.888 15.5977 64.5039 15.7734C64.1198 15.9492 63.8333 16.1868 63.6445 16.4863C63.4557 16.7858 63.3613 17.1243 63.3613 17.502C63.3613 17.7689 63.4232 18.013 63.5469 18.2344C63.6706 18.4492 63.8594 18.651 64.1133 18.8398C64.3672 19.0221 64.6862 19.1947 65.0703 19.3574C65.4544 19.5202 65.9069 19.6764 66.4277 19.8262C67.2155 20.0605 67.9023 20.321 68.4883 20.6074C69.0742 20.8874 69.5625 21.2064 69.9531 21.5645C70.3438 21.9225 70.6367 22.3294 70.832 22.7852C71.0273 23.2344 71.125 23.7454 71.125 24.3184C71.125 24.9173 71.0046 25.4577 70.7637 25.9395C70.5228 26.4147 70.1777 26.8216 69.7285 27.1602C69.2858 27.4922 68.752 27.7493 68.127 27.9316C67.5085 28.1074 66.8184 28.1953 66.0566 28.1953C65.373 28.1953 64.6992 28.1042 64.0352 27.9219C63.3776 27.7396 62.7786 27.4629 62.2383 27.0918C61.6979 26.7142 61.2682 26.2454 60.9492 25.6855C60.6302 25.1191 60.4707 24.4583 60.4707 23.7031H62.9219C62.9219 24.1654 63 24.5592 63.1562 24.8848C63.319 25.2103 63.5436 25.4772 63.8301 25.6855C64.1165 25.8874 64.4486 26.0371 64.8262 26.1348C65.2103 26.2324 65.6204 26.2812 66.0566 26.2812C66.6296 26.2812 67.1081 26.1999 67.4922 26.0371C67.8828 25.8743 68.1758 25.6465 68.3711 25.3535C68.5664 25.0605 68.6641 24.722 68.6641 24.3379ZM75.5719 19.4648V32.0625H73.2184V17.4336H75.3863L75.5719 19.4648ZM82.4566 22.6191V22.8242C82.4566 23.5924 82.3655 24.3053 82.1832 24.9629C82.0074 25.6139 81.7438 26.1836 81.3922 26.6719C81.0471 27.1536 80.6207 27.528 80.1129 27.7949C79.6051 28.0618 79.0191 28.1953 78.3551 28.1953C77.6975 28.1953 77.1214 28.0749 76.6266 27.834C76.1383 27.5866 75.7249 27.2383 75.3863 26.7891C75.0478 26.3398 74.7744 25.8125 74.566 25.207C74.3642 24.5951 74.221 23.9245 74.1363 23.1953V22.4043C74.221 21.6296 74.3642 20.9264 74.566 20.2949C74.7744 19.6634 75.0478 19.1198 75.3863 18.6641C75.7249 18.2083 76.1383 17.8568 76.6266 17.6094C77.1148 17.362 77.6845 17.2383 78.3355 17.2383C78.9996 17.2383 79.5888 17.3685 80.1031 17.6289C80.6174 17.8828 81.0504 18.2474 81.402 18.7227C81.7535 19.1914 82.0172 19.7578 82.193 20.4219C82.3688 21.0794 82.4566 21.8118 82.4566 22.6191ZM80.1031 22.8242V22.6191C80.1031 22.1309 80.0576 21.6784 79.9664 21.2617C79.8753 20.8385 79.732 20.4674 79.5367 20.1484C79.3414 19.8294 79.0908 19.582 78.7848 19.4062C78.4853 19.224 78.124 19.1328 77.7008 19.1328C77.2841 19.1328 76.926 19.2044 76.6266 19.3477C76.3271 19.4844 76.0764 19.6764 75.8746 19.9238C75.6728 20.1712 75.5165 20.4609 75.4059 20.793C75.2952 21.1185 75.2171 21.4733 75.1715 21.8574V23.752C75.2496 24.2207 75.3831 24.6504 75.5719 25.041C75.7607 25.4316 76.0276 25.7441 76.3727 25.9785C76.7242 26.2064 77.1734 26.3203 77.7203 26.3203C78.1435 26.3203 78.5048 26.2292 78.8043 26.0469C79.1038 25.8646 79.3479 25.6139 79.5367 25.2949C79.732 24.9694 79.8753 24.5951 79.9664 24.1719C80.0576 23.7487 80.1031 23.2995 80.1031 22.8242ZM86.9719 19.4453V28H84.6184V17.4336H86.8645L86.9719 19.4453ZM90.2043 17.3652L90.1848 19.5527C90.0415 19.5267 89.8853 19.5072 89.716 19.4941C89.5533 19.4811 89.3905 19.4746 89.2277 19.4746C88.8241 19.4746 88.4693 19.5332 88.1633 19.6504C87.8573 19.7611 87.6001 19.9238 87.3918 20.1387C87.19 20.347 87.0337 20.6009 86.923 20.9004C86.8124 21.1999 86.7473 21.5352 86.7277 21.9062L86.1906 21.9453C86.1906 21.2812 86.2557 20.666 86.3859 20.0996C86.5161 19.5332 86.7115 19.0352 86.9719 18.6055C87.2388 18.1758 87.5708 17.8405 87.968 17.5996C88.3716 17.3587 88.8371 17.2383 89.3645 17.2383C89.5077 17.2383 89.6607 17.2513 89.8234 17.2773C89.9927 17.3034 90.1197 17.3327 90.2043 17.3652ZM91.1258 22.834V22.6094C91.1258 21.8477 91.2365 21.1413 91.4578 20.4902C91.6792 19.8327 91.9982 19.263 92.4148 18.7812C92.838 18.293 93.3523 17.9154 93.9578 17.6484C94.5698 17.375 95.2599 17.2383 96.0281 17.2383C96.8029 17.2383 97.493 17.375 98.0984 17.6484C98.7104 17.9154 99.228 18.293 99.6512 18.7812C100.074 19.263 100.397 19.8327 100.618 20.4902C100.839 21.1413 100.95 21.8477 100.95 22.6094V22.834C100.95 23.5957 100.839 24.3021 100.618 24.9531C100.397 25.6042 100.074 26.1738 99.6512 26.6621C99.228 27.1439 98.7137 27.5215 98.1082 27.7949C97.5027 28.0618 96.8159 28.1953 96.0477 28.1953C95.2729 28.1953 94.5796 28.0618 93.9676 27.7949C93.3621 27.5215 92.8478 27.1439 92.4246 26.6621C92.0014 26.1738 91.6792 25.6042 91.4578 24.9531C91.2365 24.3021 91.1258 23.5957 91.1258 22.834ZM93.4793 22.6094V22.834C93.4793 23.3092 93.5281 23.7585 93.6258 24.1816C93.7234 24.6048 93.8764 24.9759 94.0848 25.2949C94.2931 25.6139 94.56 25.8646 94.8855 26.0469C95.2111 26.2292 95.5984 26.3203 96.0477 26.3203C96.4839 26.3203 96.8615 26.2292 97.1805 26.0469C97.506 25.8646 97.7729 25.6139 97.9812 25.2949C98.1896 24.9759 98.3426 24.6048 98.4402 24.1816C98.5444 23.7585 98.5965 23.3092 98.5965 22.834V22.6094C98.5965 22.1406 98.5444 21.6979 98.4402 21.2812C98.3426 20.8581 98.1863 20.4837 97.9715 20.1582C97.7631 19.8327 97.4962 19.5788 97.1707 19.3965C96.8517 19.2077 96.4708 19.1133 96.0281 19.1133C95.5854 19.1133 95.2013 19.2077 94.8758 19.3965C94.5568 19.5788 94.2931 19.8327 94.0848 20.1582C93.8764 20.4837 93.7234 20.8581 93.6258 21.2812C93.5281 21.6979 93.4793 22.1406 93.4793 22.6094ZM109.43 25.5098V17.4336H111.793V28H109.567L109.43 25.5098ZM109.762 23.3125L110.553 23.293C110.553 24.0026 110.475 24.6569 110.319 25.2559C110.162 25.8483 109.922 26.3659 109.596 26.8086C109.271 27.2448 108.854 27.5866 108.346 27.834C107.838 28.0749 107.23 28.1953 106.52 28.1953C106.006 28.1953 105.534 28.1204 105.104 27.9707C104.674 27.821 104.303 27.5898 103.991 27.2773C103.685 26.9648 103.447 26.5579 103.278 26.0566C103.108 25.5553 103.024 24.9564 103.024 24.2598V17.4336H105.377V24.2793C105.377 24.6634 105.423 24.9857 105.514 25.2461C105.605 25.5 105.729 25.7051 105.885 25.8613C106.041 26.0176 106.224 26.1283 106.432 26.1934C106.64 26.2585 106.862 26.291 107.096 26.291C107.767 26.291 108.294 26.1608 108.678 25.9004C109.069 25.6335 109.345 25.2754 109.508 24.8262C109.677 24.377 109.762 23.8724 109.762 23.3125ZM119.199 17.4336V19.1523H113.242V17.4336H119.199ZM114.961 14.8457H117.314V25.0801C117.314 25.4056 117.36 25.6562 117.451 25.832C117.549 26.0013 117.682 26.1152 117.852 26.1738C118.021 26.2324 118.219 26.2617 118.447 26.2617C118.61 26.2617 118.766 26.252 118.916 26.2324C119.066 26.2129 119.186 26.1934 119.277 26.1738L119.287 27.9707C119.092 28.0293 118.864 28.0814 118.604 28.127C118.35 28.1725 118.057 28.1953 117.725 28.1953C117.184 28.1953 116.706 28.1009 116.289 27.9121C115.872 27.7168 115.547 27.401 115.312 26.9648C115.078 26.5286 114.961 25.9492 114.961 25.2266V14.8457ZM127.093 25.1387C127.093 24.9043 127.035 24.6927 126.918 24.5039C126.8 24.3086 126.576 24.1328 126.244 23.9766C125.918 23.8203 125.436 23.6771 124.798 23.5469C124.239 23.4232 123.724 23.2767 123.255 23.1074C122.793 22.9316 122.396 22.7201 122.064 22.4727C121.732 22.2253 121.475 21.9323 121.293 21.5938C121.11 21.2552 121.019 20.8646 121.019 20.4219C121.019 19.9922 121.114 19.5853 121.302 19.2012C121.491 18.8171 121.761 18.4785 122.113 18.1855C122.464 17.8926 122.891 17.6615 123.392 17.4922C123.9 17.3229 124.466 17.2383 125.091 17.2383C125.977 17.2383 126.735 17.388 127.367 17.6875C128.005 17.9805 128.493 18.3809 128.832 18.8887C129.17 19.39 129.339 19.9564 129.339 20.5879H126.986C126.986 20.3079 126.914 20.0475 126.771 19.8066C126.634 19.5592 126.426 19.3607 126.146 19.2109C125.866 19.0547 125.515 18.9766 125.091 18.9766C124.688 18.9766 124.352 19.0417 124.086 19.1719C123.825 19.2956 123.63 19.4583 123.5 19.6602C123.376 19.862 123.314 20.0833 123.314 20.3242C123.314 20.5 123.347 20.6595 123.412 20.8027C123.483 20.9395 123.601 21.0664 123.763 21.1836C123.926 21.2943 124.147 21.3984 124.427 21.4961C124.714 21.5938 125.072 21.6882 125.502 21.7793C126.309 21.9486 127.002 22.1667 127.582 22.4336C128.168 22.694 128.617 23.0326 128.929 23.4492C129.242 23.8594 129.398 24.3802 129.398 25.0117C129.398 25.4805 129.297 25.9102 129.095 26.3008C128.9 26.6849 128.614 27.0202 128.236 27.3066C127.858 27.5866 127.406 27.8047 126.879 27.9609C126.358 28.1172 125.772 28.1953 125.121 28.1953C124.164 28.1953 123.353 28.026 122.689 27.6875C122.025 27.3424 121.52 26.903 121.175 26.3691C120.837 25.8288 120.668 25.2689 120.668 24.6895H122.943C122.969 25.1257 123.089 25.474 123.304 25.7344C123.526 25.9883 123.799 26.1738 124.125 26.291C124.457 26.4017 124.798 26.457 125.15 26.457C125.573 26.457 125.928 26.4017 126.214 26.291C126.501 26.1738 126.719 26.0176 126.869 25.8223C127.018 25.6204 127.093 25.3926 127.093 25.1387Z" fill="white"/>
</svg>

