<svg width="149" height="43" viewBox="0 0 149 43" fill="none" xmlns="http://www.w3.org/2000/svg">
<rect width="149" height="43" fill="none"/>
<path d="M19.7842 19.6543V22.3613H11.6846V19.6543H19.7842ZM12.791 13.3594V29H9.28906V13.3594H12.791ZM22.2012 13.3594V29H18.71V13.3594H22.2012ZM30.9342 26.2285V21.2441C30.9342 20.8932 30.8805 20.5924 30.773 20.3418C30.6656 20.0911 30.4973 19.8942 30.2682 19.751C30.039 19.6077 29.7418 19.5361 29.3766 19.5361C29.0686 19.5361 28.8001 19.5898 28.5709 19.6973C28.3489 19.8047 28.177 19.9587 28.0553 20.1592C27.9407 20.3597 27.8834 20.6068 27.8834 20.9004H24.5318C24.5318 20.3776 24.65 19.8906 24.8863 19.4395C25.1227 18.9883 25.4592 18.5908 25.8961 18.2471C26.3401 17.9033 26.8701 17.6383 27.4859 17.4521C28.1018 17.2588 28.7929 17.1621 29.5592 17.1621C30.4687 17.1621 31.2779 17.3161 31.9869 17.624C32.7031 17.9248 33.2688 18.3796 33.6842 18.9883C34.0995 19.5898 34.3072 20.349 34.3072 21.2656V26.1318C34.3072 26.8337 34.3466 27.3851 34.4254 27.7861C34.5113 28.18 34.6331 28.5238 34.7906 28.8174V29H31.4068C31.2493 28.6634 31.1311 28.248 31.0523 27.7539C30.9736 27.2526 30.9342 26.7441 30.9342 26.2285ZM31.3531 21.9102L31.3746 23.7578H29.7096C29.3372 23.7578 29.0149 23.8044 28.7428 23.8975C28.4778 23.9906 28.263 24.1195 28.0982 24.2842C27.9335 24.4417 27.8118 24.6279 27.733 24.8428C27.6614 25.0505 27.6256 25.2796 27.6256 25.5303C27.6256 25.7666 27.6829 25.9814 27.7975 26.1748C27.912 26.361 28.0696 26.5078 28.2701 26.6152C28.4706 26.7227 28.7034 26.7764 28.9684 26.7764C29.4052 26.7764 29.7776 26.6904 30.0855 26.5186C30.4007 26.3467 30.6441 26.139 30.816 25.8955C30.9879 25.6449 31.0738 25.4121 31.0738 25.1973L31.8795 26.5938C31.7506 26.8802 31.593 27.1774 31.4068 27.4854C31.2206 27.7861 30.9843 28.069 30.6979 28.334C30.4114 28.5918 30.0641 28.8031 29.6559 28.9678C29.2548 29.1325 28.7714 29.2148 28.2057 29.2148C27.4752 29.2148 26.8128 29.068 26.2184 28.7744C25.624 28.4736 25.1477 28.0618 24.7896 27.5391C24.4387 27.0163 24.2633 26.4147 24.2633 25.7344C24.2633 25.1257 24.3743 24.585 24.5963 24.1123C24.8183 23.6396 25.1513 23.2386 25.5953 22.9092C26.0465 22.5798 26.6122 22.3327 27.2926 22.168C27.9729 21.9961 28.7678 21.9102 29.6773 21.9102H31.3531ZM36.6701 12.5H40.0217V26.2393L39.6779 29H36.6701V12.5ZM47.2727 23.0596V23.2852C47.2727 24.166 47.1796 24.9681 46.9934 25.6914C46.8143 26.4147 46.5386 27.0413 46.1662 27.5713C45.7938 28.0941 45.3247 28.4987 44.759 28.7852C44.1932 29.0716 43.5272 29.2148 42.7609 29.2148C42.052 29.2148 41.4432 29.068 40.9348 28.7744C40.4263 28.4736 40.0002 28.0583 39.6564 27.5283C39.3127 26.9984 39.0334 26.3789 38.8186 25.6699C38.6109 24.9609 38.4497 24.1982 38.3352 23.3818V22.9951C38.4497 22.1787 38.6109 21.416 38.8186 20.707C39.0334 19.998 39.3127 19.3786 39.6564 18.8486C40.0002 18.3187 40.4227 17.9069 40.924 17.6133C41.4325 17.3125 42.0376 17.1621 42.7395 17.1621C43.5129 17.1621 44.1825 17.3089 44.7482 17.6025C45.3212 17.8962 45.7938 18.3079 46.1662 18.8379C46.5386 19.3607 46.8143 19.9837 46.9934 20.707C47.1796 21.4232 47.2727 22.2074 47.2727 23.0596ZM43.9211 23.2852V23.0596C43.9211 22.6156 43.8889 22.1966 43.8244 21.8027C43.7671 21.4089 43.6633 21.0615 43.5129 20.7607C43.3697 20.4528 43.1656 20.2129 42.9006 20.041C42.6428 19.862 42.3098 19.7725 41.9016 19.7725C41.5005 19.7725 41.1604 19.8405 40.8811 19.9766C40.6018 20.1126 40.3762 20.306 40.2043 20.5566C40.0324 20.8001 39.9071 21.0973 39.8283 21.4482C39.7495 21.7992 39.7066 22.1895 39.6994 22.6191V23.7578C39.7066 24.3307 39.7818 24.832 39.925 25.2617C40.0682 25.6914 40.301 26.0244 40.6232 26.2607C40.9455 26.4899 41.3788 26.6045 41.923 26.6045C42.3384 26.6045 42.675 26.5257 42.9328 26.3682C43.1978 26.2035 43.3983 25.9743 43.5344 25.6807C43.6776 25.387 43.7779 25.0361 43.8352 24.6279C43.8924 24.2197 43.9211 23.7721 43.9211 23.2852ZM52.74 17.377V29H49.3777V17.377H52.74ZM49.1736 14.3691C49.1736 13.8822 49.3455 13.4847 49.6893 13.1768C50.033 12.8617 50.4842 12.7041 51.0428 12.7041C51.6014 12.7041 52.0525 12.8617 52.3963 13.1768C52.7472 13.4847 52.9227 13.8822 52.9227 14.3691C52.9227 14.849 52.7472 15.2464 52.3963 15.5615C52.0525 15.8695 51.6014 16.0234 51.0428 16.0234C50.4842 16.0234 50.033 15.8695 49.6893 15.5615C49.3455 15.2464 49.1736 14.849 49.1736 14.3691ZM61.2152 17.377V19.7295H54.3187V17.377H61.2152ZM55.8979 14.498H59.2602V25.3584C59.2602 25.6807 59.2995 25.9277 59.3783 26.0996C59.4571 26.2715 59.586 26.3932 59.765 26.4648C59.9441 26.5293 60.1732 26.5615 60.4525 26.5615C60.6531 26.5615 60.8249 26.5544 60.9682 26.54C61.1114 26.5257 61.2439 26.5078 61.3656 26.4863V28.9141C61.0792 29.0072 60.7748 29.0788 60.4525 29.1289C60.1303 29.1862 59.7794 29.2148 59.3998 29.2148C58.6765 29.2148 58.0499 29.0967 57.5199 28.8604C56.9971 28.624 56.5961 28.2516 56.3168 27.7432C56.0375 27.2275 55.8979 26.5579 55.8979 25.7344V14.498ZM71.2588 24.875C71.2588 24.61 71.2194 24.3737 71.1406 24.166C71.0618 23.9512 70.9186 23.7542 70.7109 23.5752C70.5033 23.3962 70.2096 23.2171 69.8301 23.0381C69.4505 22.8519 68.9528 22.6621 68.3369 22.4688C67.6351 22.2396 66.9655 21.9818 66.3281 21.6953C65.6979 21.4017 65.1357 21.0615 64.6416 20.6748C64.1475 20.2881 63.7572 19.8369 63.4707 19.3213C63.1914 18.8057 63.0518 18.2041 63.0518 17.5166C63.0518 16.8506 63.1986 16.249 63.4922 15.7119C63.7858 15.1748 64.1976 14.7165 64.7275 14.3369C65.2575 13.9502 65.8805 13.6566 66.5967 13.4561C67.3128 13.2484 68.1006 13.1445 68.96 13.1445C70.1058 13.1445 71.112 13.3486 71.9785 13.7568C72.8522 14.1579 73.5326 14.7236 74.0195 15.4541C74.5065 16.1774 74.75 17.0189 74.75 17.9785H71.2695C71.2695 17.556 71.18 17.1836 71.001 16.8613C70.8291 16.5319 70.5641 16.2741 70.2061 16.0879C69.8551 15.9017 69.4147 15.8086 68.8848 15.8086C68.3691 15.8086 67.9359 15.8874 67.585 16.0449C67.2412 16.1953 66.9798 16.403 66.8008 16.668C66.6289 16.9329 66.543 17.223 66.543 17.5381C66.543 17.7887 66.6074 18.0179 66.7363 18.2256C66.8724 18.4261 67.0658 18.6159 67.3164 18.7949C67.5742 18.9668 67.8893 19.1315 68.2617 19.2891C68.6341 19.4466 69.0602 19.597 69.54 19.7402C70.3779 20.0052 71.1191 20.2988 71.7637 20.6211C72.4154 20.9434 72.9632 21.3086 73.4072 21.7168C73.8512 22.125 74.1842 22.5869 74.4062 23.1025C74.6354 23.6182 74.75 24.2018 74.75 24.8535C74.75 25.5482 74.6139 26.1641 74.3418 26.7012C74.0768 27.2383 73.6901 27.6966 73.1816 28.0762C72.6803 28.4486 72.0788 28.7314 71.377 28.9248C70.6751 29.1182 69.891 29.2148 69.0244 29.2148C68.2367 29.2148 67.4596 29.1146 66.6934 28.9141C65.9271 28.7064 65.2324 28.3913 64.6094 27.9688C63.9935 27.5462 63.4993 27.0091 63.127 26.3574C62.7617 25.6986 62.5791 24.918 62.5791 24.0156H66.0811C66.0811 24.4883 66.1491 24.8893 66.2852 25.2188C66.4212 25.541 66.6146 25.8024 66.8652 26.0029C67.123 26.2035 67.4346 26.3467 67.7998 26.4326C68.165 26.5186 68.5732 26.5615 69.0244 26.5615C69.5472 26.5615 69.9697 26.4899 70.292 26.3467C70.6214 26.1963 70.8649 25.9922 71.0225 25.7344C71.18 25.4766 71.2588 25.1901 71.2588 24.875ZM80.1529 19.6113V33.4688H76.8014V17.377H79.9273L80.1529 19.6113ZM87.4039 23.0596V23.2852C87.4039 24.1302 87.3072 24.9144 87.1139 25.6377C86.9205 26.3538 86.6305 26.9805 86.2438 27.5176C85.8642 28.0547 85.3951 28.4736 84.8365 28.7744C84.2779 29.068 83.6298 29.2148 82.8922 29.2148C82.1904 29.2148 81.5816 29.068 81.066 28.7744C80.5576 28.4736 80.1279 28.0583 79.777 27.5283C79.4332 26.9912 79.1539 26.3789 78.9391 25.6914C78.7314 24.9967 78.5702 24.2555 78.4557 23.4678V23.0273C78.5702 22.1895 78.735 21.4124 78.9498 20.6963C79.1646 19.9801 79.4439 19.3607 79.7877 18.8379C80.1314 18.3079 80.5576 17.8962 81.066 17.6025C81.5745 17.3089 82.1796 17.1621 82.8814 17.1621C83.6119 17.1621 84.26 17.3018 84.8258 17.5811C85.3915 17.8604 85.8642 18.2614 86.2438 18.7842C86.6305 19.2998 86.9205 19.9193 87.1139 20.6426C87.3072 21.3659 87.4039 22.1715 87.4039 23.0596ZM84.0416 23.2852V23.0596C84.0416 22.5869 84.0058 22.1536 83.9342 21.7598C83.8626 21.3587 83.748 21.0114 83.5904 20.7178C83.4329 20.417 83.2252 20.1842 82.9674 20.0195C82.7096 19.8548 82.3945 19.7725 82.0221 19.7725C81.621 19.7725 81.2809 19.8369 81.0016 19.9658C80.7223 20.0947 80.4967 20.2845 80.3248 20.5352C80.1529 20.7786 80.0276 21.0794 79.9488 21.4375C79.8772 21.7956 79.8378 22.2038 79.8307 22.6621V23.8438C79.8378 24.3809 79.913 24.8607 80.0563 25.2832C80.2066 25.6986 80.4394 26.0244 80.7545 26.2607C81.0768 26.4899 81.5064 26.6045 82.0436 26.6045C82.4231 26.6045 82.7382 26.5221 82.9889 26.3574C83.2467 26.1855 83.4508 25.9456 83.6012 25.6377C83.7587 25.3298 83.8697 24.9753 83.9342 24.5742C84.0058 24.1732 84.0416 23.7435 84.0416 23.2852ZM92.6994 20.084V29H89.3479V17.377H92.4953L92.6994 20.084ZM96.1691 17.291L96.1154 20.417C95.9722 20.3955 95.786 20.3776 95.5568 20.3633C95.3277 20.3418 95.1307 20.3311 94.966 20.3311C94.5363 20.3311 94.1639 20.3848 93.8488 20.4922C93.5409 20.5924 93.2831 20.7428 93.0754 20.9434C92.8749 21.1439 92.7245 21.3945 92.6242 21.6953C92.524 21.9889 92.4738 22.3291 92.4738 22.7158L91.84 22.4043C91.84 21.638 91.9152 20.9362 92.0656 20.2988C92.216 19.6615 92.4344 19.11 92.7209 18.6445C93.0074 18.1719 93.3583 17.8066 93.7736 17.5488C94.189 17.291 94.6617 17.1621 95.1916 17.1621C95.3635 17.1621 95.5389 17.1729 95.718 17.1943C95.897 17.2158 96.0474 17.248 96.1691 17.291ZM96.8455 23.3066V23.0811C96.8455 22.2288 96.9672 21.4447 97.2107 20.7285C97.4542 20.0052 97.8123 19.3786 98.285 18.8486C98.7576 18.3187 99.3377 17.9069 100.025 17.6133C100.713 17.3125 101.5 17.1621 102.388 17.1621C103.291 17.1621 104.086 17.3125 104.773 17.6133C105.468 17.9069 106.052 18.3187 106.524 18.8486C106.997 19.3786 107.355 20.0052 107.598 20.7285C107.842 21.4447 107.964 22.2288 107.964 23.0811V23.3066C107.964 24.1517 107.842 24.9359 107.598 25.6592C107.355 26.3753 106.997 27.002 106.524 27.5391C106.052 28.069 105.471 28.4808 104.784 28.7744C104.096 29.068 103.305 29.2148 102.41 29.2148C101.522 29.2148 100.731 29.068 100.036 28.7744C99.3413 28.4808 98.7576 28.069 98.285 27.5391C97.8123 27.002 97.4542 26.3753 97.2107 25.6592C96.9672 24.9359 96.8455 24.1517 96.8455 23.3066ZM100.208 23.0811V23.3066C100.208 23.765 100.244 24.1947 100.315 24.5957C100.394 24.9967 100.519 25.3477 100.691 25.6484C100.863 25.9492 101.089 26.1855 101.368 26.3574C101.654 26.5221 102.002 26.6045 102.41 26.6045C102.818 26.6045 103.162 26.5221 103.441 26.3574C103.721 26.1855 103.946 25.9492 104.118 25.6484C104.29 25.3477 104.412 24.9967 104.483 24.5957C104.562 24.1947 104.601 23.765 104.601 23.3066V23.0811C104.601 22.6299 104.562 22.2074 104.483 21.8135C104.412 21.4124 104.29 21.0579 104.118 20.75C103.946 20.4421 103.717 20.2021 103.43 20.0303C103.151 19.8584 102.804 19.7725 102.388 19.7725C101.987 19.7725 101.647 19.8584 101.368 20.0303C101.089 20.2021 100.863 20.4421 100.691 20.75C100.519 21.0579 100.394 21.4124 100.315 21.8135C100.244 22.2074 100.208 22.6299 100.208 23.0811ZM116.697 26.1963V17.377H120.07V29H116.912L116.697 26.1963ZM117.051 23.8223L117.975 23.8008C117.975 24.5814 117.882 25.3011 117.696 25.96C117.517 26.6188 117.245 27.1917 116.879 27.6787C116.521 28.1657 116.074 28.5452 115.537 28.8174C115.007 29.0824 114.387 29.2148 113.678 29.2148C113.105 29.2148 112.579 29.1361 112.099 28.9785C111.626 28.8138 111.218 28.5596 110.874 28.2158C110.531 27.8649 110.266 27.4173 110.079 26.873C109.893 26.3216 109.8 25.6628 109.8 24.8965V17.377H113.152V24.918C113.152 25.2188 113.188 25.4766 113.259 25.6914C113.338 25.8991 113.442 26.071 113.571 26.207C113.707 26.3431 113.871 26.4434 114.065 26.5078C114.265 26.5723 114.484 26.6045 114.72 26.6045C115.315 26.6045 115.78 26.4827 116.117 26.2393C116.46 25.9886 116.7 25.6556 116.836 25.2402C116.98 24.8177 117.051 24.3451 117.051 23.8223ZM128.309 17.377V19.7295H121.412V17.377H128.309ZM122.991 14.498H126.354V25.3584C126.354 25.6807 126.393 25.9277 126.472 26.0996C126.55 26.2715 126.679 26.3932 126.858 26.4648C127.037 26.5293 127.267 26.5615 127.546 26.5615C127.746 26.5615 127.918 26.5544 128.062 26.54C128.205 26.5257 128.337 26.5078 128.459 26.4863V28.9141C128.173 29.0072 127.868 29.0788 127.546 29.1289C127.224 29.1862 126.873 29.2148 126.493 29.2148C125.77 29.2148 125.143 29.0967 124.613 28.8604C124.09 28.624 123.689 28.2516 123.41 27.7432C123.131 27.2275 122.991 26.5579 122.991 25.7344V14.498ZM136.257 25.7666C136.257 25.5518 136.189 25.362 136.053 25.1973C135.924 25.0326 135.688 24.8822 135.344 24.7461C135.008 24.61 134.532 24.474 133.916 24.3379C133.336 24.2161 132.795 24.0586 132.294 23.8652C131.792 23.6647 131.355 23.4248 130.983 23.1455C130.611 22.859 130.321 22.5225 130.113 22.1357C129.905 21.7419 129.801 21.2943 129.801 20.793C129.801 20.306 129.905 19.8441 130.113 19.4072C130.328 18.9704 130.636 18.5837 131.037 18.2471C131.445 17.9105 131.939 17.6455 132.519 17.4521C133.106 17.2588 133.772 17.1621 134.517 17.1621C135.541 17.1621 136.426 17.3232 137.171 17.6455C137.915 17.9606 138.488 18.4046 138.889 18.9775C139.29 19.5433 139.491 20.1914 139.491 20.9219H136.139C136.139 20.6211 136.082 20.3597 135.967 20.1377C135.853 19.9157 135.677 19.7438 135.441 19.6221C135.205 19.4932 134.893 19.4287 134.506 19.4287C134.206 19.4287 133.941 19.4824 133.712 19.5898C133.49 19.6901 133.314 19.8298 133.185 20.0088C133.063 20.1878 133.003 20.3955 133.003 20.6318C133.003 20.7965 133.038 20.9469 133.11 21.083C133.189 21.2119 133.307 21.3337 133.464 21.4482C133.629 21.5557 133.84 21.6523 134.098 21.7383C134.363 21.8242 134.685 21.9066 135.065 21.9854C135.874 22.1357 136.612 22.347 137.278 22.6191C137.951 22.8913 138.488 23.2673 138.889 23.7471C139.297 24.2269 139.502 24.8607 139.502 25.6484C139.502 26.1641 139.383 26.6367 139.147 27.0664C138.918 27.4961 138.585 27.8721 138.148 28.1943C137.711 28.5166 137.188 28.7673 136.58 28.9463C135.971 29.1253 135.283 29.2148 134.517 29.2148C133.421 29.2148 132.494 29.0179 131.735 28.624C130.976 28.2301 130.403 27.736 130.016 27.1416C129.637 26.54 129.447 25.9242 129.447 25.2939H132.594C132.609 25.6807 132.705 25.9958 132.884 26.2393C133.071 26.4827 133.31 26.6618 133.604 26.7764C133.898 26.8838 134.227 26.9375 134.592 26.9375C134.958 26.9375 135.262 26.8874 135.505 26.7871C135.749 26.6868 135.935 26.5508 136.064 26.3789C136.193 26.1999 136.257 25.9958 136.257 25.7666Z" fill="#C0DA1F"/>
</svg>
