<svg xmlns="http://www.w3.org/2000/svg" width="24" height="25" viewBox="0 0 24 25" fill="none">
<path d="M3 0C2.20435 0 1.44129 0.32924 0.87868 0.915291C0.316071 1.50134 0 2.2962 0 3.125L0 21.875C0 22.7038 0.316071 23.4987 0.87868 24.0847C1.44129 24.6708 2.20435 25 3 25H21C21.7956 25 22.5587 24.6708 23.1213 24.0847C23.6839 23.4987 24 22.7038 24 21.875V3.125C24 2.2962 23.6839 1.50134 23.1213 0.915291C22.5587 0.32924 21.7956 0 21 0L3 0ZM12.75 7.03125V11.7188H17.25C17.4489 11.7188 17.6397 11.8011 17.7803 11.9476C17.921 12.0941 18 12.2928 18 12.5C18 12.7072 17.921 12.9059 17.7803 13.0524C17.6397 13.1989 17.4489 13.2812 17.25 13.2812H12.75V17.9688C12.75 18.176 12.671 18.3747 12.5303 18.5212C12.3897 18.6677 12.1989 18.75 12 18.75C11.8011 18.75 11.6103 18.6677 11.4697 18.5212C11.329 18.3747 11.25 18.176 11.25 17.9688V13.2812H6.75C6.55109 13.2812 6.36032 13.1989 6.21967 13.0524C6.07902 12.9059 6 12.7072 6 12.5C6 12.2928 6.07902 12.0941 6.21967 11.9476C6.36032 11.8011 6.55109 11.7188 6.75 11.7188H11.25V7.03125C11.25 6.82405 11.329 6.62534 11.4697 6.47882C11.6103 6.33231 11.8011 6.25 12 6.25C12.1989 6.25 12.3897 6.33231 12.5303 6.47882C12.671 6.62534 12.75 6.82405 12.75 7.03125Z" fill="#C5E01F"/>
</svg>