<svg width="43" height="43" viewBox="0 0 43 43" fill="none" xmlns="http://www.w3.org/2000/svg">
<g clip-path="url(#clip0_64_76)">
<path d="M21.5 43C27.2022 43 32.6708 40.7348 36.7028 36.7028C40.7348 32.6708 43 27.2022 43 21.5C43 15.7978 40.7348 10.3292 36.7028 6.2972C32.6708 2.26517 27.2022 0 21.5 0C15.7978 0 10.3292 2.26517 6.2972 6.2972C2.26517 10.3292 0 15.7978 0 21.5C0 27.2022 2.26517 32.6708 6.2972 36.7028C10.3292 40.7348 15.7978 43 21.5 43ZM18.8125 17.4688C18.8125 19.694 17.6085 21.5 16.125 21.5C14.6415 21.5 13.4375 19.694 13.4375 17.4688C13.4375 15.2435 14.6415 13.4375 16.125 13.4375C17.6085 13.4375 18.8125 15.2435 18.8125 17.4688ZM11.5159 25.7113C11.8246 25.5331 12.1913 25.4848 12.5356 25.5771C12.8798 25.6693 13.1733 25.8945 13.3515 26.2031C14.1769 27.6338 15.3646 28.8217 16.7951 29.6474C18.2256 30.473 19.8483 30.9072 21.5 30.9062C23.1517 30.9072 24.7744 30.473 26.2049 29.6474C27.6354 28.8217 28.8231 27.6338 29.6485 26.2031C29.7361 26.0491 29.8533 25.9139 29.9933 25.8053C30.1334 25.6967 30.2935 25.6169 30.4646 25.5705C30.6356 25.524 30.8141 25.5119 30.9898 25.5347C31.1656 25.5576 31.3351 25.615 31.4885 25.7036C31.642 25.7922 31.7764 25.9103 31.8841 26.051C31.9917 26.1918 32.0705 26.3525 32.1158 26.5238C32.1611 26.6951 32.172 26.8737 32.148 27.0493C32.124 27.2249 32.0655 27.394 31.9759 27.5469C30.9146 29.3861 29.3877 30.9133 27.5486 31.9748C25.7096 33.0363 23.6234 33.5947 21.5 33.5938C19.3766 33.5947 17.2904 33.0363 15.4514 31.9748C13.6123 30.9133 12.0854 29.3861 11.0241 27.5469C10.8459 27.2382 10.7977 26.8715 10.8899 26.5272C10.9821 26.183 11.2073 25.8895 11.5159 25.7113ZM26.875 21.5C25.3915 21.5 24.1875 19.694 24.1875 17.4688C24.1875 15.2435 25.3915 13.4375 26.875 13.4375C28.3585 13.4375 29.5625 15.2435 29.5625 17.4688C29.5625 19.694 28.3585 21.5 26.875 21.5Z" fill="#C6E700"/>
</g>
<defs>
<clipPath id="clip0_64_76">
<rect width="43" height="43" fill="white"/>
</clipPath>
</defs>
</svg>
