<svg xmlns="http://www.w3.org/2000/svg" width="16" height="16" viewBox="0 0 16 16" fill="none">
  <path fill-rule="evenodd" clip-rule="evenodd" d="M13.854 2.14599C13.9006 2.19244 13.9375 2.24761 13.9627 2.30836C13.9879 2.36911 14.0009 2.43423 14.0009 2.49999C14.0009 2.56576 13.9879 2.63088 13.9627 2.69163C13.9375 2.75237 13.9006 2.80755 13.854 2.85399L2.85402 13.854C2.76013 13.9479 2.6328 14.0006 2.50002 14.0006C2.36725 14.0006 2.23991 13.9479 2.14602 13.854C2.05213 13.7601 1.99939 13.6328 1.99939 13.5C1.99939 13.3672 2.05213 13.2399 2.14602 13.146L13.146 2.14599C13.1925 2.09943 13.2476 2.06249 13.3084 2.03728C13.3691 2.01207 13.4343 1.9991 13.5 1.9991C13.5658 1.9991 13.6309 2.01207 13.6917 2.03728C13.7524 2.06249 13.8076 2.09943 13.854 2.14599Z" fill="black"/>
  <path fill-rule="evenodd" clip-rule="evenodd" d="M2.14598 2.14599C2.09941 2.19244 2.06247 2.24761 2.03727 2.30836C2.01206 2.36911 1.99908 2.43423 1.99908 2.49999C1.99908 2.56576 2.01206 2.63088 2.03727 2.69163C2.06247 2.75237 2.09941 2.80755 2.14598 2.85399L13.146 13.854C13.2399 13.9479 13.3672 14.0006 13.5 14.0006C13.6328 14.0006 13.7601 13.9479 13.854 13.854C13.9479 13.7601 14.0006 13.6328 14.0006 13.5C14.0006 13.3672 13.9479 13.2399 13.854 13.146L2.85398 2.14599C2.80753 2.09943 2.75236 2.06249 2.69161 2.03728C2.63087 2.01207 2.56575 1.9991 2.49998 1.9991C2.43421 1.9991 2.36909 2.01207 2.30834 2.03728C2.2476 2.06249 2.19242 2.09943 2.14598 2.14599Z" fill="black"/>
</svg>